<svg id="Layer_1" data-name="Layer 1" xmlns="http://www.w3.org/2000/svg" viewBox="0 0 188.7 153.67"><path d="M1199.11,988.15a1.41,1.41,0,0,0-2,0l-14.58,14.58-3.56,3.56-15.49,15.49a1.39,1.39,0,0,1-2,0l-33.63-33.63a1.41,1.41,0,0,0-2,0l-57.33,57.33a1.39,1.39,0,0,0,0,2l93.94,93.94h0l1.58-1.58,74.37-74.37,3.56-3.56,14.43-14.42a1.41,1.41,0,0,0,0-2Zm-124.89,57.33,51.66-51.67a1.41,1.41,0,0,1,2,0l28.44,28.44,2.36,2.36a1.41,1.41,0,0,1,0,2L1107,1078.27a1.41,1.41,0,0,1-2,0l-30.8-30.81A1.39,1.39,0,0,1,1074.22,1045.48Zm87.29,89.27-51.67-51.66a1.41,1.41,0,0,1,0-2l25.21-25.21a1.41,1.41,0,0,1,2,0l51.67,51.66a1.41,1.41,0,0,1,0,2l-25.22,25.21A1.39,1.39,0,0,1,1161.51,1134.75Zm30.74-30.74-51.67-51.67a1.39,1.39,0,0,1,0-2l21.92-21.92.33-.33,2.31-2.31.27-.27.39-.39a1.41,1.41,0,0,1,2,0l51.67,51.67a1.41,1.41,0,0,1,0,2L1194.24,1104A1.41,1.41,0,0,1,1192.25,1104Zm28.19-26.21.56-.76.1.11Zm19.14-19.13-.71-.71-17-17,0,0h0l-2.56,2.57a1.39,1.39,0,0,0,0,2l16.09,16.1.71.7-.4.39-10.43,10.44a1.41,1.41,0,0,1-2,0l-19.53-19.53h0l-32.14-32.14a1.41,1.41,0,0,1,0-2l10.82-10.82h0l17.32,17.31.71.72L1204,1023l-.71-.71-16.91-16.91h0l-.4-.41,11.81-11.81h0l26.83,26.82,26.83,26.83h0Z" transform="translate(-1068.15 -987.74)"/><polygon points="98.01 124.15 99.63 122.53 66.13 89.02 66.03 88.93 66.03 88.94 62.47 92.5 96.07 126.09 98.01 124.15 98.01 124.15"/><polygon points="129.17 92.99 130.37 91.79 96.87 58.28 96.78 58.19 96.77 58.19 93.21 61.75 126.81 95.35 129.17 92.99 129.17 92.99"/><polyline points="151.16 55.62 150.08 56.7 150.14 56.77 152.53 59.15"/></svg>