<?xml version="1.0" standalone="no"?>
<!DOCTYPE svg PUBLIC "-//W3C//DTD SVG 20010904//EN"
 "http://www.w3.org/TR/2001/REC-SVG-20010904/DTD/svg10.dtd">
<svg version="1.0" xmlns="http://www.w3.org/2000/svg"
 width="320.000000pt" height="320.000000pt" viewBox="0 0 320.000000 320.000000"
 preserveAspectRatio="xMidYMid meet">
<metadata>
Created by potrace 1.14, written by Peter Selinger 2001-2017
</metadata>
<g transform="translate(0.000000,320.000000) scale(0.100000,-0.100000)"
fill="#000000" stroke="none">
<path d="M0 1600 l0 -1600 1600 0 1600 0 0 1600 0 1600 -1600 0 -1600 0 0
-1600z m1087 1179 c43 -16 122 -80 143 -116 25 -43 16 -43 504 7 619 62 634
63 656 4 12 -32 -1 -59 -38 -78 -32 -17 -260 -58 -442 -81 -69 -8 -156 -20
-195 -27 -59 -10 -65 -13 -40 -18 23 -4 -6 -13 -115 -34 -80 -15 -178 -37
-219 -48 -63 -19 -70 -23 -50 -30 16 -6 45 -4 86 6 72 19 287 33 263 18 -8 -5
-55 -15 -105 -21 -305 -39 -279 -33 -294 -69 -5 -15 -17 -63 -25 -107 -8 -44
-26 -127 -40 -185 -22 -94 -55 -245 -132 -600 -14 -63 -31 -144 -39 -180 -14
-61 -70 -336 -81 -390 -2 -14 -13 -83 -23 -154 -24 -167 -43 -184 -129 -119
-118 89 -134 282 -53 643 25 111 103 562 97 567 -1 2 -14 -32 -27 -74 l-24
-78 -3 52 c-6 98 68 473 93 473 3 0 3 -46 0 -102 l-5 -103 46 138 c25 76 44
141 41 143 -12 12 -168 -52 -287 -117 -72 -40 -133 -69 -137 -66 -3 4 6 22 20
41 23 29 53 44 209 106 163 63 208 87 208 111 0 4 -10 5 -22 2 -36 -9 -280
-114 -445 -192 -83 -40 -167 -74 -186 -78 -75 -12 -163 44 -189 119 -29 83
-40 120 -36 122 1 1 95 40 208 86 230 93 468 172 610 201 52 11 101 26 108 33
9 9 16 47 19 102 7 104 14 114 70 93z m355 -583 c46 -18 58 -42 92 -186 67
-280 199 -806 205 -817 10 -18 20 -7 103 117 78 116 303 404 352 449 14 14 28
22 31 19 14 -14 87 -228 106 -309 11 -52 36 -159 55 -239 19 -80 41 -179 49
-220 9 -41 38 -129 64 -195 51 -125 69 -210 61 -284 -5 -43 -5 -43 -24 -23
l-18 21 -22 -25 -21 -24 -65 26 c-36 14 -75 36 -87 47 -15 16 -35 72 -67 192
-70 263 -72 274 -100 380 -15 55 -29 106 -32 114 -5 16 -65 -61 -191 -249 -57
-85 -111 -151 -143 -179 l-53 -45 5 32 c6 43 -7 40 -34 -8 -40 -70 -48 -62
-127 134 -73 183 -93 250 -115 378 -21 118 -29 151 -43 155 -6 2 -14 -13 -17
-34 -10 -55 -76 -318 -136 -543 -29 -107 -56 -208 -60 -225 -29 -111 -69 -143
-155 -125 -87 18 -96 47 -51 169 15 40 31 94 36 120 5 25 19 89 30 141 20 88
39 189 91 465 39 207 71 360 96 460 21 82 24 113 18 170 -7 75 -7 157 1 164 2
2 10 -3 17 -13 12 -16 14 -15 36 8 22 24 26 24 50 11 14 -8 43 -21 63 -29z
m1421 -21 c27 -11 32 -53 12 -104 -48 -123 -118 -393 -165 -636 -50 -259 -115
-548 -127 -569 -11 -17 -43 65 -33 82 13 24 79 325 73 335 -3 5 -15 -1 -28
-13 -19 -18 -23 -19 -28 -6 -12 31 -22 15 -41 -64 -10 -44 -22 -80 -25 -80 -4
0 -14 33 -24 72 -9 40 -26 85 -38 101 -24 33 -20 59 32 238 17 57 34 118 39
134 18 72 124 423 136 451 8 18 26 42 41 54 24 19 36 22 93 17 36 -3 73 -9 83
-12z m-2116 -642 c-3 -10 -5 -2 -5 17 0 19 2 27 5 18 2 -10 2 -26 0 -35z m-88
-440 c-18 -64 -22 -45 -7 33 9 50 14 61 16 40 2 -16 -2 -49 -9 -73z"/>
<path d="M1478 2443 c7 -3 16 -2 19 1 4 3 -2 6 -13 5 -11 0 -14 -3 -6 -6z"/>
<path d="M1292 1785 c-19 -24 -89 -342 -77 -353 3 -3 12 3 19 14 12 15 17 17
27 7 19 -19 29 -16 29 10 0 12 11 65 25 117 24 94 31 163 19 208 -8 28 -18 28
-42 -3z"/>
</g>
</svg>
